<svg width="925" height="525" viewBox="0 0 925 525" fill="none" xmlns="http://www.w3.org/2000/svg">
<path d="M276.555 252.191C242.159 234.801 185.425 233.202 152.59 241.686C147.316 243.048 141.741 240.514 140.144 236.025C138.546 231.533 141.519 226.789 146.795 225.425C184.488 215.685 247.145 217.566 286.742 237.577C291.486 239.974 293.04 245.189 290.229 249.219C287.416 253.257 281.286 254.589 276.555 252.191ZM275.428 277.948C273.015 281.282 267.895 282.327 263.984 280.28C235.31 265.274 191.583 260.927 157.658 269.694C153.259 270.825 148.612 268.714 147.276 264.975C146.639 263.177 146.865 261.238 147.905 259.583C148.945 257.927 150.714 256.69 152.823 256.143C191.577 246.13 239.756 250.979 272.691 268.211C276.602 270.261 277.832 274.622 275.428 277.948ZM262.371 302.684C261.917 303.319 261.32 303.872 260.614 304.311C259.908 304.75 259.107 305.066 258.258 305.241C257.409 305.416 256.527 305.447 255.664 305.331C254.8 305.216 253.972 304.956 253.227 304.568C228.17 291.53 196.631 288.586 159.488 295.809C158.637 295.975 157.756 295.996 156.895 295.872C156.034 295.747 155.211 295.48 154.471 295.085C153.732 294.69 153.091 294.174 152.586 293.568C152.081 292.962 151.721 292.277 151.526 291.552C151.331 290.828 151.305 290.077 151.45 289.344C151.596 288.61 151.91 287.909 152.375 287.279C152.839 286.649 153.445 286.103 154.158 285.673C154.87 285.243 155.675 284.937 156.527 284.772C197.174 276.862 232.039 280.266 260.165 294.898C260.91 295.286 261.559 295.795 262.073 296.396C262.588 296.997 262.958 297.678 263.163 298.401C263.368 299.124 263.404 299.875 263.268 300.61C263.132 301.344 262.827 302.049 262.371 302.684ZM213.434 171.657C154.505 171.657 106.731 212.328 106.731 262.498C106.731 312.674 154.505 353.343 213.435 353.343C272.367 353.343 320.141 312.674 320.141 262.498C320.141 212.329 272.367 171.657 213.434 171.657ZM397.037 255.521C378.613 251.78 375.335 249.155 375.335 243.639C375.335 238.428 381.097 234.922 389.667 234.922C397.975 234.922 406.211 237.585 414.848 243.067C415.11 243.233 415.437 243.299 415.76 243.256C415.919 243.236 416.072 243.189 416.209 243.116C416.346 243.044 416.464 242.949 416.556 242.837L425.552 232.041C425.921 231.597 425.821 230.983 425.322 230.644C415.043 223.623 403.469 220.209 389.94 220.209C370.047 220.209 356.152 230.371 356.152 244.914C356.152 260.508 368.139 266.028 388.851 270.291C406.481 273.749 409.457 276.643 409.457 281.822C409.457 287.559 403.441 291.126 393.758 291.126C383.005 291.126 374.233 288.043 364.42 280.808C364.172 280.634 363.856 280.546 363.534 280.562C363.209 280.585 362.913 280.714 362.707 280.925L352.62 291.145C352.197 291.569 352.25 292.202 352.739 292.568C364.156 301.246 378.198 305.83 393.349 305.83C414.786 305.83 428.636 295.858 428.636 280.425C428.636 267.382 419.484 260.167 397.037 255.521ZM492.695 273.002C492.695 284.015 484.725 291.701 473.315 291.701C462.035 291.701 453.526 283.666 453.526 273.002C453.526 262.338 462.035 254.302 473.315 254.302C484.542 254.302 492.695 262.165 492.695 273.002ZM477.134 240.052C467.843 240.052 460.222 243.168 453.938 249.551V242.365C453.938 241.798 453.397 241.336 452.731 241.336H436.236C435.569 241.336 435.03 241.798 435.03 242.365V322.207C435.03 322.774 435.569 323.237 436.236 323.237H452.73C453.397 323.237 453.938 322.774 453.938 322.207V297.005C460.223 303.011 467.845 305.945 477.134 305.945C494.398 305.945 511.875 294.63 511.875 273.002C511.875 251.369 494.398 240.052 477.134 240.052ZM556.673 291.816C544.847 291.816 535.932 283.727 535.932 273.002C535.932 262.231 544.538 254.415 556.4 254.415C568.301 254.415 577.278 262.504 577.278 273.237C577.278 284.006 568.612 291.816 556.673 291.816ZM556.673 240.052C534.439 240.052 517.022 254.627 517.022 273.238C517.022 291.645 534.32 306.067 556.4 306.067C578.712 306.067 596.184 291.541 596.184 273.002C596.184 254.525 578.833 240.052 556.673 240.052ZM643.662 241.336H625.51V225.535C625.51 224.968 624.973 224.506 624.306 224.506H607.811C607.144 224.506 606.602 224.968 606.602 225.535V241.336H598.67C598.006 241.336 597.468 241.798 597.468 242.365V254.435C597.468 255.002 598.006 255.464 598.67 255.464H606.602V286.696C606.602 299.317 613.98 305.718 628.533 305.718C634.45 305.718 639.36 304.677 643.987 302.444C644.362 302.265 644.596 301.92 644.596 301.553V290.059C644.596 289.883 644.544 289.711 644.444 289.557C644.344 289.404 644.199 289.275 644.024 289.182C643.849 289.09 643.649 289.037 643.443 289.029C643.237 289.021 643.032 289.058 642.848 289.137C639.671 290.498 636.598 291.126 633.165 291.126C627.872 291.126 625.51 289.081 625.51 284.495V255.464H643.663C644.33 255.464 644.866 255.002 644.866 254.435V242.365C644.866 241.798 644.329 241.336 643.662 241.336ZM706.909 241.397V239.457C706.909 233.747 709.48 231.201 715.247 231.201C718.688 231.201 721.449 231.783 724.543 232.662C724.724 232.713 724.918 232.727 725.107 232.702C725.296 232.677 725.476 232.615 725.631 232.519C725.786 232.423 725.912 232.298 725.998 232.153C726.085 232.007 726.13 231.847 726.129 231.684V219.848C726.13 219.627 726.048 219.413 725.894 219.235C725.741 219.058 725.524 218.928 725.277 218.863C722.009 218.035 717.827 217.185 711.565 217.185C696.328 217.185 688.274 224.491 688.274 238.302V241.274H680.35C680.03 241.275 679.722 241.383 679.495 241.576C679.268 241.768 679.14 242.03 679.139 242.303V254.435C679.139 255.001 679.683 255.465 680.35 255.465H688.274V303.639C688.274 304.206 688.812 304.668 689.478 304.668H705.973C706.639 304.668 707.182 304.206 707.182 303.639V255.464H722.585L746.18 303.625C743.5 308.686 740.866 309.692 737.271 309.692C734.364 309.692 731.304 308.953 728.174 307.496C728.028 307.429 727.868 307.388 727.703 307.375C727.538 307.361 727.372 307.377 727.214 307.42C726.899 307.514 726.634 307.713 726.5 307.974L720.91 318.417C720.781 318.653 720.763 318.922 720.859 319.169C720.955 319.416 721.159 319.622 721.427 319.746C727.265 322.437 732.535 323.586 739.046 323.586C751.227 323.586 757.96 318.755 763.896 305.76L792.516 242.798C792.587 242.643 792.613 242.475 792.59 242.309C792.568 242.143 792.499 241.984 792.389 241.846C792.279 241.708 792.131 241.595 791.958 241.517C791.785 241.438 791.592 241.397 791.396 241.396H774.223C773.972 241.397 773.727 241.463 773.522 241.587C773.317 241.71 773.162 241.885 773.079 242.086L755.487 284.867L736.217 242.058C736.13 241.863 735.976 241.696 735.775 241.577C735.574 241.459 735.335 241.396 735.09 241.396L706.909 241.397ZM670.243 241.336H653.746C653.081 241.336 652.538 241.798 652.538 242.365V303.638C652.538 304.205 653.081 304.667 653.746 304.667H670.243C670.909 304.667 671.452 304.205 671.452 303.638V242.365C671.452 241.798 670.908 241.336 670.243 241.336ZM662.079 213.437C655.544 213.437 650.241 217.941 650.241 223.504C650.241 229.071 655.544 233.581 662.079 233.581C668.612 233.581 673.91 229.071 673.91 223.504C673.91 217.941 668.612 213.437 662.079 213.437ZM807.276 247.431H804.253V250.712H807.276C808.784 250.712 809.684 250.084 809.684 249.071C809.684 248.003 808.784 247.431 807.276 247.431ZM809.234 252.111L812.518 256.025H809.75L806.794 252.436H804.252V256.025H801.935V245.652H807.368C810.2 245.652 812.062 246.885 812.062 248.96C812.062 250.661 810.908 251.7 809.234 252.111ZM806.66 242.199C800.714 242.199 796.214 246.223 796.214 251.151C796.214 256.077 800.682 260.048 806.6 260.048C812.544 260.048 817.05 256.025 817.05 251.095C817.05 246.169 812.577 242.199 806.66 242.199ZM806.6 261.036C800.071 261.036 794.991 256.572 794.991 251.151C794.991 245.731 800.137 241.216 806.659 241.216C813.189 241.216 818.269 245.679 818.269 251.095C818.269 256.517 813.126 261.036 806.6 261.036Z" fill="white"/>
</svg>
